<mxfile host="app.diagrams.net" modified="2023-11-12T13:33:12.475Z" agent="Mozilla/5.0 (Windows NT 10.0; Win64; x64; rv:109.0) Gecko/20100101 Firefox/116.0" etag="0Ek0QMIpPk8MccBpC3hh" version="22.1.0" type="github">
  <diagram id="C5RBs43oDa-KdzZeNtuy" name="Page-1">
    <mxGraphModel dx="880" dy="508" grid="1" gridSize="10" guides="1" tooltips="1" connect="1" arrows="1" fold="1" page="1" pageScale="1" pageWidth="827" pageHeight="1169" math="0" shadow="0">
      <root>
        <mxCell id="WIyWlLk6GJQsqaUBKTNV-0" />
        <mxCell id="WIyWlLk6GJQsqaUBKTNV-1" parent="WIyWlLk6GJQsqaUBKTNV-0" />
        <mxCell id="PF4K7zb1NUCe5OKD4z1z-2" style="edgeStyle=orthogonalEdgeStyle;rounded=0;orthogonalLoop=1;jettySize=auto;html=1;" parent="WIyWlLk6GJQsqaUBKTNV-1" source="PF4K7zb1NUCe5OKD4z1z-0" target="PF4K7zb1NUCe5OKD4z1z-1" edge="1">
          <mxGeometry relative="1" as="geometry" />
        </mxCell>
        <mxCell id="PF4K7zb1NUCe5OKD4z1z-0" value="Start" style="ellipse;whiteSpace=wrap;html=1;" parent="WIyWlLk6GJQsqaUBKTNV-1" vertex="1">
          <mxGeometry x="260" y="40" width="120" height="80" as="geometry" />
        </mxCell>
        <mxCell id="PF4K7zb1NUCe5OKD4z1z-17" style="edgeStyle=orthogonalEdgeStyle;rounded=0;orthogonalLoop=1;jettySize=auto;html=1;" parent="WIyWlLk6GJQsqaUBKTNV-1" source="PF4K7zb1NUCe5OKD4z1z-1" target="PF4K7zb1NUCe5OKD4z1z-3" edge="1">
          <mxGeometry relative="1" as="geometry" />
        </mxCell>
        <mxCell id="PF4K7zb1NUCe5OKD4z1z-1" value="date,month" style="shape=parallelogram;perimeter=parallelogramPerimeter;whiteSpace=wrap;html=1;fixedSize=1;" parent="WIyWlLk6GJQsqaUBKTNV-1" vertex="1">
          <mxGeometry x="245" y="160" width="150" height="80" as="geometry" />
        </mxCell>
        <mxCell id="PF4K7zb1NUCe5OKD4z1z-18" value="False" style="edgeStyle=orthogonalEdgeStyle;rounded=0;orthogonalLoop=1;jettySize=auto;html=1;" parent="WIyWlLk6GJQsqaUBKTNV-1" source="PF4K7zb1NUCe5OKD4z1z-3" target="PF4K7zb1NUCe5OKD4z1z-4" edge="1">
          <mxGeometry relative="1" as="geometry" />
        </mxCell>
        <mxCell id="PF4K7zb1NUCe5OKD4z1z-64" value="true" style="edgeStyle=orthogonalEdgeStyle;rounded=0;orthogonalLoop=1;jettySize=auto;html=1;entryX=0;entryY=0.5;entryDx=0;entryDy=0;" parent="WIyWlLk6GJQsqaUBKTNV-1" source="PF4K7zb1NUCe5OKD4z1z-3" target="PF4K7zb1NUCe5OKD4z1z-41" edge="1">
          <mxGeometry relative="1" as="geometry" />
        </mxCell>
        <mxCell id="PF4K7zb1NUCe5OKD4z1z-3" value="month==3" style="rhombus;whiteSpace=wrap;html=1;" parent="WIyWlLk6GJQsqaUBKTNV-1" vertex="1">
          <mxGeometry x="232.5" y="290" width="175" height="110" as="geometry" />
        </mxCell>
        <mxCell id="PF4K7zb1NUCe5OKD4z1z-19" value="False" style="edgeStyle=orthogonalEdgeStyle;rounded=0;orthogonalLoop=1;jettySize=auto;html=1;" parent="WIyWlLk6GJQsqaUBKTNV-1" source="PF4K7zb1NUCe5OKD4z1z-4" target="PF4K7zb1NUCe5OKD4z1z-13" edge="1">
          <mxGeometry relative="1" as="geometry" />
        </mxCell>
        <mxCell id="PF4K7zb1NUCe5OKD4z1z-63" value="true" style="edgeStyle=orthogonalEdgeStyle;rounded=0;orthogonalLoop=1;jettySize=auto;html=1;" parent="WIyWlLk6GJQsqaUBKTNV-1" source="PF4K7zb1NUCe5OKD4z1z-4" target="PF4K7zb1NUCe5OKD4z1z-42" edge="1">
          <mxGeometry relative="1" as="geometry" />
        </mxCell>
        <mxCell id="PF4K7zb1NUCe5OKD4z1z-4" value="month==4" style="rhombus;whiteSpace=wrap;html=1;" parent="WIyWlLk6GJQsqaUBKTNV-1" vertex="1">
          <mxGeometry x="230" y="430" width="175" height="110" as="geometry" />
        </mxCell>
        <mxCell id="PF4K7zb1NUCe5OKD4z1z-30" style="edgeStyle=orthogonalEdgeStyle;rounded=0;orthogonalLoop=1;jettySize=auto;html=1;" parent="WIyWlLk6GJQsqaUBKTNV-1" source="PF4K7zb1NUCe5OKD4z1z-5" target="PF4K7zb1NUCe5OKD4z1z-29" edge="1">
          <mxGeometry relative="1" as="geometry" />
        </mxCell>
        <mxCell id="PF4K7zb1NUCe5OKD4z1z-5" value="month==2" style="rhombus;whiteSpace=wrap;html=1;" parent="WIyWlLk6GJQsqaUBKTNV-1" vertex="1">
          <mxGeometry x="200" y="1940" width="175" height="110" as="geometry" />
        </mxCell>
        <mxCell id="PF4K7zb1NUCe5OKD4z1z-28" value="False" style="edgeStyle=orthogonalEdgeStyle;rounded=0;orthogonalLoop=1;jettySize=auto;html=1;" parent="WIyWlLk6GJQsqaUBKTNV-1" source="PF4K7zb1NUCe5OKD4z1z-7" target="PF4K7zb1NUCe5OKD4z1z-5" edge="1">
          <mxGeometry relative="1" as="geometry" />
        </mxCell>
        <mxCell id="PF4K7zb1NUCe5OKD4z1z-7" value="month==1" style="rhombus;whiteSpace=wrap;html=1;" parent="WIyWlLk6GJQsqaUBKTNV-1" vertex="1">
          <mxGeometry x="200" y="1770" width="175" height="110" as="geometry" />
        </mxCell>
        <mxCell id="PF4K7zb1NUCe5OKD4z1z-26" value="False" style="edgeStyle=orthogonalEdgeStyle;rounded=0;orthogonalLoop=1;jettySize=auto;html=1;entryX=0.5;entryY=0;entryDx=0;entryDy=0;" parent="WIyWlLk6GJQsqaUBKTNV-1" source="PF4K7zb1NUCe5OKD4z1z-8" target="PF4K7zb1NUCe5OKD4z1z-11" edge="1">
          <mxGeometry relative="1" as="geometry" />
        </mxCell>
        <mxCell id="PF4K7zb1NUCe5OKD4z1z-8" value="month==11" style="rhombus;whiteSpace=wrap;html=1;" parent="WIyWlLk6GJQsqaUBKTNV-1" vertex="1">
          <mxGeometry x="200" y="1440" width="175" height="110" as="geometry" />
        </mxCell>
        <mxCell id="PF4K7zb1NUCe5OKD4z1z-24" value="False" style="edgeStyle=orthogonalEdgeStyle;rounded=0;orthogonalLoop=1;jettySize=auto;html=1;" parent="WIyWlLk6GJQsqaUBKTNV-1" source="PF4K7zb1NUCe5OKD4z1z-9" target="PF4K7zb1NUCe5OKD4z1z-10" edge="1">
          <mxGeometry relative="1" as="geometry" />
        </mxCell>
        <mxCell id="PF4K7zb1NUCe5OKD4z1z-9" value="month==9" style="rhombus;whiteSpace=wrap;html=1;" parent="WIyWlLk6GJQsqaUBKTNV-1" vertex="1">
          <mxGeometry x="200" y="1120" width="175" height="110" as="geometry" />
        </mxCell>
        <mxCell id="PF4K7zb1NUCe5OKD4z1z-25" value="False" style="edgeStyle=orthogonalEdgeStyle;rounded=0;orthogonalLoop=1;jettySize=auto;html=1;entryX=0.5;entryY=0;entryDx=0;entryDy=0;" parent="WIyWlLk6GJQsqaUBKTNV-1" source="PF4K7zb1NUCe5OKD4z1z-10" target="PF4K7zb1NUCe5OKD4z1z-8" edge="1">
          <mxGeometry relative="1" as="geometry" />
        </mxCell>
        <mxCell id="PF4K7zb1NUCe5OKD4z1z-10" value="month==10" style="rhombus;whiteSpace=wrap;html=1;" parent="WIyWlLk6GJQsqaUBKTNV-1" vertex="1">
          <mxGeometry x="200" y="1290" width="175" height="110" as="geometry" />
        </mxCell>
        <mxCell id="PF4K7zb1NUCe5OKD4z1z-27" value="False" style="edgeStyle=orthogonalEdgeStyle;rounded=0;orthogonalLoop=1;jettySize=auto;html=1;" parent="WIyWlLk6GJQsqaUBKTNV-1" source="PF4K7zb1NUCe5OKD4z1z-11" target="PF4K7zb1NUCe5OKD4z1z-7" edge="1">
          <mxGeometry relative="1" as="geometry" />
        </mxCell>
        <mxCell id="PF4K7zb1NUCe5OKD4z1z-11" value="month==12" style="rhombus;whiteSpace=wrap;html=1;" parent="WIyWlLk6GJQsqaUBKTNV-1" vertex="1">
          <mxGeometry x="200" y="1600" width="175" height="110" as="geometry" />
        </mxCell>
        <mxCell id="PF4K7zb1NUCe5OKD4z1z-23" value="False" style="edgeStyle=orthogonalEdgeStyle;rounded=0;orthogonalLoop=1;jettySize=auto;html=1;entryX=0.5;entryY=0;entryDx=0;entryDy=0;" parent="WIyWlLk6GJQsqaUBKTNV-1" source="PF4K7zb1NUCe5OKD4z1z-12" target="PF4K7zb1NUCe5OKD4z1z-9" edge="1">
          <mxGeometry relative="1" as="geometry" />
        </mxCell>
        <mxCell id="PF4K7zb1NUCe5OKD4z1z-59" value="true" style="edgeStyle=orthogonalEdgeStyle;rounded=0;orthogonalLoop=1;jettySize=auto;html=1;" parent="WIyWlLk6GJQsqaUBKTNV-1" source="PF4K7zb1NUCe5OKD4z1z-12" target="PF4K7zb1NUCe5OKD4z1z-43" edge="1">
          <mxGeometry relative="1" as="geometry" />
        </mxCell>
        <mxCell id="PF4K7zb1NUCe5OKD4z1z-12" value="month==8" style="rhombus;whiteSpace=wrap;html=1;" parent="WIyWlLk6GJQsqaUBKTNV-1" vertex="1">
          <mxGeometry x="200" y="960" width="175" height="110" as="geometry" />
        </mxCell>
        <mxCell id="PF4K7zb1NUCe5OKD4z1z-20" value="False" style="edgeStyle=orthogonalEdgeStyle;rounded=0;orthogonalLoop=1;jettySize=auto;html=1;" parent="WIyWlLk6GJQsqaUBKTNV-1" source="PF4K7zb1NUCe5OKD4z1z-13" target="PF4K7zb1NUCe5OKD4z1z-15" edge="1">
          <mxGeometry relative="1" as="geometry" />
        </mxCell>
        <mxCell id="PF4K7zb1NUCe5OKD4z1z-62" value="true" style="edgeStyle=orthogonalEdgeStyle;rounded=0;orthogonalLoop=1;jettySize=auto;html=1;" parent="WIyWlLk6GJQsqaUBKTNV-1" source="PF4K7zb1NUCe5OKD4z1z-13" target="PF4K7zb1NUCe5OKD4z1z-44" edge="1">
          <mxGeometry relative="1" as="geometry" />
        </mxCell>
        <mxCell id="PF4K7zb1NUCe5OKD4z1z-13" value="month==5" style="rhombus;whiteSpace=wrap;html=1;" parent="WIyWlLk6GJQsqaUBKTNV-1" vertex="1">
          <mxGeometry x="220" y="560" width="175" height="110" as="geometry" />
        </mxCell>
        <mxCell id="PF4K7zb1NUCe5OKD4z1z-22" value="False" style="edgeStyle=orthogonalEdgeStyle;rounded=0;orthogonalLoop=1;jettySize=auto;html=1;" parent="WIyWlLk6GJQsqaUBKTNV-1" source="PF4K7zb1NUCe5OKD4z1z-14" target="PF4K7zb1NUCe5OKD4z1z-12" edge="1">
          <mxGeometry relative="1" as="geometry" />
        </mxCell>
        <mxCell id="PF4K7zb1NUCe5OKD4z1z-60" value="true" style="edgeStyle=orthogonalEdgeStyle;rounded=0;orthogonalLoop=1;jettySize=auto;html=1;" parent="WIyWlLk6GJQsqaUBKTNV-1" source="PF4K7zb1NUCe5OKD4z1z-14" target="PF4K7zb1NUCe5OKD4z1z-45" edge="1">
          <mxGeometry relative="1" as="geometry" />
        </mxCell>
        <mxCell id="PF4K7zb1NUCe5OKD4z1z-14" value="month==7" style="rhombus;whiteSpace=wrap;html=1;" parent="WIyWlLk6GJQsqaUBKTNV-1" vertex="1">
          <mxGeometry x="205" y="820" width="175" height="110" as="geometry" />
        </mxCell>
        <mxCell id="PF4K7zb1NUCe5OKD4z1z-21" value="False" style="edgeStyle=orthogonalEdgeStyle;rounded=0;orthogonalLoop=1;jettySize=auto;html=1;" parent="WIyWlLk6GJQsqaUBKTNV-1" source="PF4K7zb1NUCe5OKD4z1z-15" target="PF4K7zb1NUCe5OKD4z1z-14" edge="1">
          <mxGeometry relative="1" as="geometry" />
        </mxCell>
        <mxCell id="PF4K7zb1NUCe5OKD4z1z-61" value="true" style="edgeStyle=orthogonalEdgeStyle;rounded=0;orthogonalLoop=1;jettySize=auto;html=1;" parent="WIyWlLk6GJQsqaUBKTNV-1" source="PF4K7zb1NUCe5OKD4z1z-15" target="PF4K7zb1NUCe5OKD4z1z-46" edge="1">
          <mxGeometry relative="1" as="geometry" />
        </mxCell>
        <mxCell id="PF4K7zb1NUCe5OKD4z1z-15" value="month==6" style="rhombus;whiteSpace=wrap;html=1;" parent="WIyWlLk6GJQsqaUBKTNV-1" vertex="1">
          <mxGeometry x="205" y="690" width="175" height="110" as="geometry" />
        </mxCell>
        <mxCell id="PF4K7zb1NUCe5OKD4z1z-109" style="edgeStyle=orthogonalEdgeStyle;rounded=0;orthogonalLoop=1;jettySize=auto;html=1;entryX=0;entryY=0.5;entryDx=0;entryDy=0;" parent="WIyWlLk6GJQsqaUBKTNV-1" source="PF4K7zb1NUCe5OKD4z1z-29" target="PF4K7zb1NUCe5OKD4z1z-108" edge="1">
          <mxGeometry relative="1" as="geometry">
            <Array as="points">
              <mxPoint x="300" y="2298" />
            </Array>
          </mxGeometry>
        </mxCell>
        <mxCell id="PF4K7zb1NUCe5OKD4z1z-29" value="Khong hop le" style="shape=parallelogram;perimeter=parallelogramPerimeter;whiteSpace=wrap;html=1;fixedSize=1;" parent="WIyWlLk6GJQsqaUBKTNV-1" vertex="1">
          <mxGeometry x="180" y="2110" width="215" height="80" as="geometry" />
        </mxCell>
        <mxCell id="PF4K7zb1NUCe5OKD4z1z-31" value="month==2" style="rhombus;whiteSpace=wrap;html=1;" parent="WIyWlLk6GJQsqaUBKTNV-1" vertex="1">
          <mxGeometry x="200" y="1940" width="175" height="110" as="geometry" />
        </mxCell>
        <mxCell id="PF4K7zb1NUCe5OKD4z1z-32" value="month==1" style="rhombus;whiteSpace=wrap;html=1;" parent="WIyWlLk6GJQsqaUBKTNV-1" vertex="1">
          <mxGeometry x="200" y="1770" width="175" height="110" as="geometry" />
        </mxCell>
        <mxCell id="PF4K7zb1NUCe5OKD4z1z-33" value="month==12" style="rhombus;whiteSpace=wrap;html=1;" parent="WIyWlLk6GJQsqaUBKTNV-1" vertex="1">
          <mxGeometry x="200" y="1600" width="175" height="110" as="geometry" />
        </mxCell>
        <mxCell id="PF4K7zb1NUCe5OKD4z1z-34" value="month==11" style="rhombus;whiteSpace=wrap;html=1;" parent="WIyWlLk6GJQsqaUBKTNV-1" vertex="1">
          <mxGeometry x="200" y="1440" width="175" height="110" as="geometry" />
        </mxCell>
        <mxCell id="PF4K7zb1NUCe5OKD4z1z-53" value="True" style="edgeStyle=orthogonalEdgeStyle;rounded=0;orthogonalLoop=1;jettySize=auto;html=1;" parent="WIyWlLk6GJQsqaUBKTNV-1" source="PF4K7zb1NUCe5OKD4z1z-35" target="PF4K7zb1NUCe5OKD4z1z-47" edge="1">
          <mxGeometry relative="1" as="geometry" />
        </mxCell>
        <mxCell id="PF4K7zb1NUCe5OKD4z1z-35" value="month==2" style="rhombus;whiteSpace=wrap;html=1;" parent="WIyWlLk6GJQsqaUBKTNV-1" vertex="1">
          <mxGeometry x="200" y="1940" width="175" height="110" as="geometry" />
        </mxCell>
        <mxCell id="PF4K7zb1NUCe5OKD4z1z-54" value="True" style="edgeStyle=orthogonalEdgeStyle;rounded=0;orthogonalLoop=1;jettySize=auto;html=1;" parent="WIyWlLk6GJQsqaUBKTNV-1" source="PF4K7zb1NUCe5OKD4z1z-36" target="PF4K7zb1NUCe5OKD4z1z-48" edge="1">
          <mxGeometry relative="1" as="geometry" />
        </mxCell>
        <mxCell id="PF4K7zb1NUCe5OKD4z1z-36" value="month==1" style="rhombus;whiteSpace=wrap;html=1;" parent="WIyWlLk6GJQsqaUBKTNV-1" vertex="1">
          <mxGeometry x="200" y="1770" width="175" height="110" as="geometry" />
        </mxCell>
        <mxCell id="PF4K7zb1NUCe5OKD4z1z-55" value="true" style="edgeStyle=orthogonalEdgeStyle;rounded=0;orthogonalLoop=1;jettySize=auto;html=1;" parent="WIyWlLk6GJQsqaUBKTNV-1" source="PF4K7zb1NUCe5OKD4z1z-37" target="PF4K7zb1NUCe5OKD4z1z-49" edge="1">
          <mxGeometry relative="1" as="geometry" />
        </mxCell>
        <mxCell id="PF4K7zb1NUCe5OKD4z1z-37" value="month==12" style="rhombus;whiteSpace=wrap;html=1;" parent="WIyWlLk6GJQsqaUBKTNV-1" vertex="1">
          <mxGeometry x="200" y="1600" width="175" height="110" as="geometry" />
        </mxCell>
        <mxCell id="PF4K7zb1NUCe5OKD4z1z-56" value="true" style="edgeStyle=orthogonalEdgeStyle;rounded=0;orthogonalLoop=1;jettySize=auto;html=1;" parent="WIyWlLk6GJQsqaUBKTNV-1" source="PF4K7zb1NUCe5OKD4z1z-38" target="PF4K7zb1NUCe5OKD4z1z-50" edge="1">
          <mxGeometry relative="1" as="geometry" />
        </mxCell>
        <mxCell id="PF4K7zb1NUCe5OKD4z1z-38" value="month==11" style="rhombus;whiteSpace=wrap;html=1;" parent="WIyWlLk6GJQsqaUBKTNV-1" vertex="1">
          <mxGeometry x="200" y="1440" width="175" height="110" as="geometry" />
        </mxCell>
        <mxCell id="PF4K7zb1NUCe5OKD4z1z-58" value="true" style="edgeStyle=orthogonalEdgeStyle;rounded=0;orthogonalLoop=1;jettySize=auto;html=1;" parent="WIyWlLk6GJQsqaUBKTNV-1" source="PF4K7zb1NUCe5OKD4z1z-39" target="PF4K7zb1NUCe5OKD4z1z-51" edge="1">
          <mxGeometry relative="1" as="geometry" />
        </mxCell>
        <mxCell id="PF4K7zb1NUCe5OKD4z1z-39" value="month==9" style="rhombus;whiteSpace=wrap;html=1;" parent="WIyWlLk6GJQsqaUBKTNV-1" vertex="1">
          <mxGeometry x="200" y="1120" width="175" height="110" as="geometry" />
        </mxCell>
        <mxCell id="PF4K7zb1NUCe5OKD4z1z-57" value="true" style="edgeStyle=orthogonalEdgeStyle;rounded=0;orthogonalLoop=1;jettySize=auto;html=1;entryX=0;entryY=0.5;entryDx=0;entryDy=0;" parent="WIyWlLk6GJQsqaUBKTNV-1" source="PF4K7zb1NUCe5OKD4z1z-40" target="PF4K7zb1NUCe5OKD4z1z-52" edge="1">
          <mxGeometry relative="1" as="geometry" />
        </mxCell>
        <mxCell id="PF4K7zb1NUCe5OKD4z1z-40" value="month==10" style="rhombus;whiteSpace=wrap;html=1;" parent="WIyWlLk6GJQsqaUBKTNV-1" vertex="1">
          <mxGeometry x="200" y="1290" width="175" height="110" as="geometry" />
        </mxCell>
        <mxCell id="PF4K7zb1NUCe5OKD4z1z-67" value="True" style="edgeStyle=orthogonalEdgeStyle;rounded=0;orthogonalLoop=1;jettySize=auto;html=1;entryX=0;entryY=0.5;entryDx=0;entryDy=0;" parent="WIyWlLk6GJQsqaUBKTNV-1" source="PF4K7zb1NUCe5OKD4z1z-41" target="PF4K7zb1NUCe5OKD4z1z-65" edge="1">
          <mxGeometry relative="1" as="geometry">
            <Array as="points">
              <mxPoint x="570" y="410" />
              <mxPoint x="860" y="410" />
            </Array>
          </mxGeometry>
        </mxCell>
        <mxCell id="PF4K7zb1NUCe5OKD4z1z-69" value="False" style="edgeStyle=orthogonalEdgeStyle;rounded=0;orthogonalLoop=1;jettySize=auto;html=1;entryX=0;entryY=0.5;entryDx=0;entryDy=0;" parent="WIyWlLk6GJQsqaUBKTNV-1" source="PF4K7zb1NUCe5OKD4z1z-41" target="PF4K7zb1NUCe5OKD4z1z-68" edge="1">
          <mxGeometry relative="1" as="geometry" />
        </mxCell>
        <mxCell id="PF4K7zb1NUCe5OKD4z1z-41" value="date&amp;gt;=21" style="rhombus;whiteSpace=wrap;html=1;" parent="WIyWlLk6GJQsqaUBKTNV-1" vertex="1">
          <mxGeometry x="482.5" y="295" width="175" height="110" as="geometry" />
        </mxCell>
        <mxCell id="PF4K7zb1NUCe5OKD4z1z-71" value="False" style="edgeStyle=orthogonalEdgeStyle;rounded=0;orthogonalLoop=1;jettySize=auto;html=1;" parent="WIyWlLk6GJQsqaUBKTNV-1" source="PF4K7zb1NUCe5OKD4z1z-42" target="PF4K7zb1NUCe5OKD4z1z-65" edge="1">
          <mxGeometry relative="1" as="geometry">
            <Array as="points">
              <mxPoint x="568" y="427" />
            </Array>
          </mxGeometry>
        </mxCell>
        <mxCell id="PF4K7zb1NUCe5OKD4z1z-74" value="True" style="edgeStyle=orthogonalEdgeStyle;rounded=0;orthogonalLoop=1;jettySize=auto;html=1;entryX=0;entryY=0.25;entryDx=0;entryDy=0;" parent="WIyWlLk6GJQsqaUBKTNV-1" source="PF4K7zb1NUCe5OKD4z1z-42" target="PF4K7zb1NUCe5OKD4z1z-73" edge="1">
          <mxGeometry relative="1" as="geometry">
            <Array as="points">
              <mxPoint x="743" y="490" />
              <mxPoint x="743" y="545" />
            </Array>
          </mxGeometry>
        </mxCell>
        <mxCell id="PF4K7zb1NUCe5OKD4z1z-42" value="date&amp;gt;=21" style="rhombus;whiteSpace=wrap;html=1;" parent="WIyWlLk6GJQsqaUBKTNV-1" vertex="1">
          <mxGeometry x="480" y="435" width="175" height="110" as="geometry" />
        </mxCell>
        <mxCell id="PF4K7zb1NUCe5OKD4z1z-84" value="False" style="edgeStyle=orthogonalEdgeStyle;rounded=0;orthogonalLoop=1;jettySize=auto;html=1;exitX=1;exitY=0;exitDx=0;exitDy=0;entryX=0;entryY=0.25;entryDx=0;entryDy=0;" parent="WIyWlLk6GJQsqaUBKTNV-1" source="PF4K7zb1NUCe5OKD4z1z-43" target="PF4K7zb1NUCe5OKD4z1z-82" edge="1">
          <mxGeometry relative="1" as="geometry" />
        </mxCell>
        <mxCell id="PF4K7zb1NUCe5OKD4z1z-86" value="True" style="edgeStyle=orthogonalEdgeStyle;rounded=0;orthogonalLoop=1;jettySize=auto;html=1;exitX=1;exitY=1;exitDx=0;exitDy=0;entryX=0;entryY=0.25;entryDx=0;entryDy=0;" parent="WIyWlLk6GJQsqaUBKTNV-1" source="PF4K7zb1NUCe5OKD4z1z-43" target="PF4K7zb1NUCe5OKD4z1z-85" edge="1">
          <mxGeometry relative="1" as="geometry" />
        </mxCell>
        <mxCell id="PF4K7zb1NUCe5OKD4z1z-43" value="date&amp;gt;=23" style="rhombus;whiteSpace=wrap;html=1;" parent="WIyWlLk6GJQsqaUBKTNV-1" vertex="1">
          <mxGeometry x="450" y="965" width="175" height="110" as="geometry" />
        </mxCell>
        <mxCell id="PF4K7zb1NUCe5OKD4z1z-75" value="False" style="edgeStyle=orthogonalEdgeStyle;rounded=0;orthogonalLoop=1;jettySize=auto;html=1;entryX=0;entryY=0.25;entryDx=0;entryDy=0;" parent="WIyWlLk6GJQsqaUBKTNV-1" source="PF4K7zb1NUCe5OKD4z1z-44" target="PF4K7zb1NUCe5OKD4z1z-73" edge="1">
          <mxGeometry relative="1" as="geometry" />
        </mxCell>
        <mxCell id="PF4K7zb1NUCe5OKD4z1z-77" value="True" style="edgeStyle=orthogonalEdgeStyle;rounded=0;orthogonalLoop=1;jettySize=auto;html=1;exitX=1;exitY=1;exitDx=0;exitDy=0;entryX=0;entryY=0.5;entryDx=0;entryDy=0;" parent="WIyWlLk6GJQsqaUBKTNV-1" source="PF4K7zb1NUCe5OKD4z1z-44" target="PF4K7zb1NUCe5OKD4z1z-76" edge="1">
          <mxGeometry relative="1" as="geometry" />
        </mxCell>
        <mxCell id="PF4K7zb1NUCe5OKD4z1z-44" value="date&amp;gt;=21" style="rhombus;whiteSpace=wrap;html=1;" parent="WIyWlLk6GJQsqaUBKTNV-1" vertex="1">
          <mxGeometry x="470" y="565" width="175" height="110" as="geometry" />
        </mxCell>
        <mxCell id="PF4K7zb1NUCe5OKD4z1z-81" value="False" style="edgeStyle=orthogonalEdgeStyle;rounded=0;orthogonalLoop=1;jettySize=auto;html=1;exitX=1;exitY=0;exitDx=0;exitDy=0;entryX=0;entryY=0.25;entryDx=0;entryDy=0;" parent="WIyWlLk6GJQsqaUBKTNV-1" source="PF4K7zb1NUCe5OKD4z1z-45" target="PF4K7zb1NUCe5OKD4z1z-79" edge="1">
          <mxGeometry relative="1" as="geometry" />
        </mxCell>
        <mxCell id="PF4K7zb1NUCe5OKD4z1z-83" value="True" style="edgeStyle=orthogonalEdgeStyle;rounded=0;orthogonalLoop=1;jettySize=auto;html=1;entryX=0;entryY=0.5;entryDx=0;entryDy=0;" parent="WIyWlLk6GJQsqaUBKTNV-1" source="PF4K7zb1NUCe5OKD4z1z-45" target="PF4K7zb1NUCe5OKD4z1z-82" edge="1">
          <mxGeometry relative="1" as="geometry" />
        </mxCell>
        <mxCell id="PF4K7zb1NUCe5OKD4z1z-45" value="date&amp;gt;=23" style="rhombus;whiteSpace=wrap;html=1;" parent="WIyWlLk6GJQsqaUBKTNV-1" vertex="1">
          <mxGeometry x="455" y="825" width="175" height="110" as="geometry" />
        </mxCell>
        <mxCell id="PF4K7zb1NUCe5OKD4z1z-78" value="False" style="edgeStyle=orthogonalEdgeStyle;rounded=0;orthogonalLoop=1;jettySize=auto;html=1;exitX=1;exitY=0;exitDx=0;exitDy=0;" parent="WIyWlLk6GJQsqaUBKTNV-1" source="PF4K7zb1NUCe5OKD4z1z-46" target="PF4K7zb1NUCe5OKD4z1z-76" edge="1">
          <mxGeometry relative="1" as="geometry" />
        </mxCell>
        <mxCell id="PF4K7zb1NUCe5OKD4z1z-80" value="True" style="edgeStyle=orthogonalEdgeStyle;rounded=0;orthogonalLoop=1;jettySize=auto;html=1;exitX=1;exitY=1;exitDx=0;exitDy=0;entryX=0;entryY=0;entryDx=0;entryDy=0;" parent="WIyWlLk6GJQsqaUBKTNV-1" source="PF4K7zb1NUCe5OKD4z1z-46" target="PF4K7zb1NUCe5OKD4z1z-79" edge="1">
          <mxGeometry relative="1" as="geometry" />
        </mxCell>
        <mxCell id="PF4K7zb1NUCe5OKD4z1z-46" value="date&amp;gt;=22" style="rhombus;whiteSpace=wrap;html=1;" parent="WIyWlLk6GJQsqaUBKTNV-1" vertex="1">
          <mxGeometry x="455" y="695" width="175" height="110" as="geometry" />
        </mxCell>
        <mxCell id="PF4K7zb1NUCe5OKD4z1z-105" value="False" style="edgeStyle=orthogonalEdgeStyle;rounded=0;orthogonalLoop=1;jettySize=auto;html=1;exitX=1;exitY=0;exitDx=0;exitDy=0;entryX=0;entryY=0.25;entryDx=0;entryDy=0;" parent="WIyWlLk6GJQsqaUBKTNV-1" source="PF4K7zb1NUCe5OKD4z1z-47" target="PF4K7zb1NUCe5OKD4z1z-95" edge="1">
          <mxGeometry relative="1" as="geometry">
            <Array as="points">
              <mxPoint x="581" y="1900" />
              <mxPoint x="715" y="1900" />
            </Array>
          </mxGeometry>
        </mxCell>
        <mxCell id="PF4K7zb1NUCe5OKD4z1z-106" value="True" style="edgeStyle=orthogonalEdgeStyle;rounded=0;orthogonalLoop=1;jettySize=auto;html=1;exitX=1;exitY=1;exitDx=0;exitDy=0;entryX=0;entryY=0.75;entryDx=0;entryDy=0;" parent="WIyWlLk6GJQsqaUBKTNV-1" source="PF4K7zb1NUCe5OKD4z1z-47" target="PF4K7zb1NUCe5OKD4z1z-98" edge="1">
          <mxGeometry relative="1" as="geometry" />
        </mxCell>
        <mxCell id="PF4K7zb1NUCe5OKD4z1z-47" value="date&amp;gt;21" style="rhombus;whiteSpace=wrap;html=1;" parent="WIyWlLk6GJQsqaUBKTNV-1" vertex="1">
          <mxGeometry x="450" y="1945" width="175" height="110" as="geometry" />
        </mxCell>
        <mxCell id="PF4K7zb1NUCe5OKD4z1z-102" value="False" style="edgeStyle=orthogonalEdgeStyle;rounded=0;orthogonalLoop=1;jettySize=auto;html=1;exitX=1;exitY=0;exitDx=0;exitDy=0;entryX=0;entryY=0.5;entryDx=0;entryDy=0;" parent="WIyWlLk6GJQsqaUBKTNV-1" source="PF4K7zb1NUCe5OKD4z1z-48" target="PF4K7zb1NUCe5OKD4z1z-96" edge="1">
          <mxGeometry relative="1" as="geometry">
            <Array as="points">
              <mxPoint x="581" y="1750" />
              <mxPoint x="683" y="1750" />
              <mxPoint x="683" y="1745" />
            </Array>
          </mxGeometry>
        </mxCell>
        <mxCell id="PF4K7zb1NUCe5OKD4z1z-103" value="True" style="edgeStyle=orthogonalEdgeStyle;rounded=0;orthogonalLoop=1;jettySize=auto;html=1;exitX=1;exitY=1;exitDx=0;exitDy=0;entryX=0.09;entryY=0.007;entryDx=0;entryDy=0;entryPerimeter=0;" parent="WIyWlLk6GJQsqaUBKTNV-1" source="PF4K7zb1NUCe5OKD4z1z-48" target="PF4K7zb1NUCe5OKD4z1z-95" edge="1">
          <mxGeometry relative="1" as="geometry" />
        </mxCell>
        <mxCell id="PF4K7zb1NUCe5OKD4z1z-48" value="date&amp;gt;21" style="rhombus;whiteSpace=wrap;html=1;" parent="WIyWlLk6GJQsqaUBKTNV-1" vertex="1">
          <mxGeometry x="450" y="1775" width="175" height="110" as="geometry" />
        </mxCell>
        <mxCell id="PF4K7zb1NUCe5OKD4z1z-100" value="False" style="edgeStyle=orthogonalEdgeStyle;rounded=0;orthogonalLoop=1;jettySize=auto;html=1;exitX=1;exitY=0;exitDx=0;exitDy=0;entryX=0;entryY=0.75;entryDx=0;entryDy=0;" parent="WIyWlLk6GJQsqaUBKTNV-1" source="PF4K7zb1NUCe5OKD4z1z-49" target="PF4K7zb1NUCe5OKD4z1z-97" edge="1">
          <mxGeometry relative="1" as="geometry">
            <Array as="points">
              <mxPoint x="581" y="1570" />
              <mxPoint x="765" y="1570" />
            </Array>
          </mxGeometry>
        </mxCell>
        <mxCell id="PF4K7zb1NUCe5OKD4z1z-101" value="True" style="edgeStyle=orthogonalEdgeStyle;rounded=0;orthogonalLoop=1;jettySize=auto;html=1;exitX=1;exitY=1;exitDx=0;exitDy=0;entryX=0;entryY=0.5;entryDx=0;entryDy=0;" parent="WIyWlLk6GJQsqaUBKTNV-1" source="PF4K7zb1NUCe5OKD4z1z-49" target="PF4K7zb1NUCe5OKD4z1z-96" edge="1">
          <mxGeometry relative="1" as="geometry" />
        </mxCell>
        <mxCell id="PF4K7zb1NUCe5OKD4z1z-49" value="date&amp;gt;=22" style="rhombus;whiteSpace=wrap;html=1;" parent="WIyWlLk6GJQsqaUBKTNV-1" vertex="1">
          <mxGeometry x="450" y="1605" width="175" height="110" as="geometry" />
        </mxCell>
        <mxCell id="PF4K7zb1NUCe5OKD4z1z-94" value="False" style="edgeStyle=orthogonalEdgeStyle;rounded=0;orthogonalLoop=1;jettySize=auto;html=1;exitX=1;exitY=0;exitDx=0;exitDy=0;entryX=0;entryY=0.25;entryDx=0;entryDy=0;" parent="WIyWlLk6GJQsqaUBKTNV-1" source="PF4K7zb1NUCe5OKD4z1z-50" target="PF4K7zb1NUCe5OKD4z1z-92" edge="1">
          <mxGeometry relative="1" as="geometry" />
        </mxCell>
        <mxCell id="PF4K7zb1NUCe5OKD4z1z-99" value="True" style="edgeStyle=orthogonalEdgeStyle;rounded=0;orthogonalLoop=1;jettySize=auto;html=1;exitX=1;exitY=1;exitDx=0;exitDy=0;entryX=0;entryY=0.25;entryDx=0;entryDy=0;" parent="WIyWlLk6GJQsqaUBKTNV-1" source="PF4K7zb1NUCe5OKD4z1z-50" target="PF4K7zb1NUCe5OKD4z1z-97" edge="1">
          <mxGeometry relative="1" as="geometry" />
        </mxCell>
        <mxCell id="PF4K7zb1NUCe5OKD4z1z-50" value="date&amp;gt;=23" style="rhombus;whiteSpace=wrap;html=1;" parent="WIyWlLk6GJQsqaUBKTNV-1" vertex="1">
          <mxGeometry x="450" y="1445" width="175" height="110" as="geometry" />
        </mxCell>
        <mxCell id="PF4K7zb1NUCe5OKD4z1z-87" value="False" style="edgeStyle=orthogonalEdgeStyle;rounded=0;orthogonalLoop=1;jettySize=auto;html=1;exitX=1;exitY=0;exitDx=0;exitDy=0;entryX=0;entryY=0.75;entryDx=0;entryDy=0;" parent="WIyWlLk6GJQsqaUBKTNV-1" source="PF4K7zb1NUCe5OKD4z1z-51" target="PF4K7zb1NUCe5OKD4z1z-85" edge="1">
          <mxGeometry relative="1" as="geometry">
            <Array as="points">
              <mxPoint x="581" y="1105" />
            </Array>
          </mxGeometry>
        </mxCell>
        <mxCell id="PF4K7zb1NUCe5OKD4z1z-89" value="True" style="edgeStyle=orthogonalEdgeStyle;rounded=0;orthogonalLoop=1;jettySize=auto;html=1;exitX=1;exitY=1;exitDx=0;exitDy=0;entryX=0;entryY=0.25;entryDx=0;entryDy=0;" parent="WIyWlLk6GJQsqaUBKTNV-1" source="PF4K7zb1NUCe5OKD4z1z-51" target="PF4K7zb1NUCe5OKD4z1z-88" edge="1">
          <mxGeometry relative="1" as="geometry" />
        </mxCell>
        <mxCell id="PF4K7zb1NUCe5OKD4z1z-51" value="date&amp;gt;23" style="rhombus;whiteSpace=wrap;html=1;" parent="WIyWlLk6GJQsqaUBKTNV-1" vertex="1">
          <mxGeometry x="450" y="1125" width="175" height="110" as="geometry" />
        </mxCell>
        <mxCell id="PF4K7zb1NUCe5OKD4z1z-91" value="False" style="edgeStyle=orthogonalEdgeStyle;rounded=0;orthogonalLoop=1;jettySize=auto;html=1;entryX=0;entryY=0.25;entryDx=0;entryDy=0;" parent="WIyWlLk6GJQsqaUBKTNV-1" source="PF4K7zb1NUCe5OKD4z1z-52" target="PF4K7zb1NUCe5OKD4z1z-88" edge="1">
          <mxGeometry relative="1" as="geometry">
            <Array as="points">
              <mxPoint x="538" y="1290" />
              <mxPoint x="723" y="1290" />
              <mxPoint x="723" y="1256" />
            </Array>
          </mxGeometry>
        </mxCell>
        <mxCell id="PF4K7zb1NUCe5OKD4z1z-93" value="true" style="edgeStyle=orthogonalEdgeStyle;rounded=0;orthogonalLoop=1;jettySize=auto;html=1;exitX=1;exitY=1;exitDx=0;exitDy=0;entryX=0;entryY=0;entryDx=0;entryDy=0;" parent="WIyWlLk6GJQsqaUBKTNV-1" source="PF4K7zb1NUCe5OKD4z1z-52" target="PF4K7zb1NUCe5OKD4z1z-92" edge="1">
          <mxGeometry relative="1" as="geometry" />
        </mxCell>
        <mxCell id="PF4K7zb1NUCe5OKD4z1z-52" value="date&amp;gt;=24" style="rhombus;whiteSpace=wrap;html=1;" parent="WIyWlLk6GJQsqaUBKTNV-1" vertex="1">
          <mxGeometry x="450" y="1295" width="175" height="110" as="geometry" />
        </mxCell>
        <mxCell id="PF4K7zb1NUCe5OKD4z1z-111" style="edgeStyle=orthogonalEdgeStyle;rounded=0;orthogonalLoop=1;jettySize=auto;html=1;" parent="WIyWlLk6GJQsqaUBKTNV-1" source="PF4K7zb1NUCe5OKD4z1z-65" edge="1">
          <mxGeometry relative="1" as="geometry">
            <mxPoint x="1380" y="428" as="targetPoint" />
          </mxGeometry>
        </mxCell>
        <mxCell id="PF4K7zb1NUCe5OKD4z1z-65" value="&amp;nbsp;Bach Duong" style="shape=parallelogram;perimeter=parallelogramPerimeter;whiteSpace=wrap;html=1;fixedSize=1;" parent="WIyWlLk6GJQsqaUBKTNV-1" vertex="1">
          <mxGeometry x="850" y="400" width="330" height="55" as="geometry" />
        </mxCell>
        <mxCell id="PF4K7zb1NUCe5OKD4z1z-110" style="edgeStyle=orthogonalEdgeStyle;rounded=0;orthogonalLoop=1;jettySize=auto;html=1;entryX=1;entryY=0.5;entryDx=0;entryDy=0;" parent="WIyWlLk6GJQsqaUBKTNV-1" source="PF4K7zb1NUCe5OKD4z1z-68" target="PF4K7zb1NUCe5OKD4z1z-108" edge="1">
          <mxGeometry relative="1" as="geometry">
            <Array as="points">
              <mxPoint x="1380" y="307" />
              <mxPoint x="1380" y="2298" />
            </Array>
          </mxGeometry>
        </mxCell>
        <mxCell id="PF4K7zb1NUCe5OKD4z1z-68" value="&amp;nbsp;Song Ngu" style="shape=parallelogram;perimeter=parallelogramPerimeter;whiteSpace=wrap;html=1;fixedSize=1;" parent="WIyWlLk6GJQsqaUBKTNV-1" vertex="1">
          <mxGeometry x="827" y="280" width="330" height="55" as="geometry" />
        </mxCell>
        <mxCell id="PF4K7zb1NUCe5OKD4z1z-112" style="edgeStyle=orthogonalEdgeStyle;rounded=0;orthogonalLoop=1;jettySize=auto;html=1;" parent="WIyWlLk6GJQsqaUBKTNV-1" source="PF4K7zb1NUCe5OKD4z1z-73" edge="1">
          <mxGeometry relative="1" as="geometry">
            <mxPoint x="1380" y="557.5" as="targetPoint" />
          </mxGeometry>
        </mxCell>
        <mxCell id="PF4K7zb1NUCe5OKD4z1z-73" value="&amp;nbsp;Kim Nguu" style="shape=parallelogram;perimeter=parallelogramPerimeter;whiteSpace=wrap;html=1;fixedSize=1;" parent="WIyWlLk6GJQsqaUBKTNV-1" vertex="1">
          <mxGeometry x="830" y="530" width="330" height="55" as="geometry" />
        </mxCell>
        <mxCell id="PF4K7zb1NUCe5OKD4z1z-113" style="edgeStyle=orthogonalEdgeStyle;rounded=0;orthogonalLoop=1;jettySize=auto;html=1;" parent="WIyWlLk6GJQsqaUBKTNV-1" source="PF4K7zb1NUCe5OKD4z1z-76" edge="1">
          <mxGeometry relative="1" as="geometry">
            <mxPoint x="1380" y="687.5" as="targetPoint" />
          </mxGeometry>
        </mxCell>
        <mxCell id="PF4K7zb1NUCe5OKD4z1z-76" value="Song Tu" style="shape=parallelogram;perimeter=parallelogramPerimeter;whiteSpace=wrap;html=1;fixedSize=1;" parent="WIyWlLk6GJQsqaUBKTNV-1" vertex="1">
          <mxGeometry x="830" y="660" width="330" height="55" as="geometry" />
        </mxCell>
        <mxCell id="PF4K7zb1NUCe5OKD4z1z-114" style="edgeStyle=orthogonalEdgeStyle;rounded=0;orthogonalLoop=1;jettySize=auto;html=1;" parent="WIyWlLk6GJQsqaUBKTNV-1" source="PF4K7zb1NUCe5OKD4z1z-79" edge="1">
          <mxGeometry relative="1" as="geometry">
            <mxPoint x="1380" y="809.9999999999998" as="targetPoint" />
          </mxGeometry>
        </mxCell>
        <mxCell id="PF4K7zb1NUCe5OKD4z1z-79" value="&amp;nbsp;Cu Giai" style="shape=parallelogram;perimeter=parallelogramPerimeter;whiteSpace=wrap;html=1;fixedSize=1;" parent="WIyWlLk6GJQsqaUBKTNV-1" vertex="1">
          <mxGeometry x="830" y="780" width="330" height="55" as="geometry" />
        </mxCell>
        <mxCell id="PF4K7zb1NUCe5OKD4z1z-115" style="edgeStyle=orthogonalEdgeStyle;rounded=0;orthogonalLoop=1;jettySize=auto;html=1;" parent="WIyWlLk6GJQsqaUBKTNV-1" source="PF4K7zb1NUCe5OKD4z1z-82" edge="1">
          <mxGeometry relative="1" as="geometry">
            <mxPoint x="1380" y="957.4999999999998" as="targetPoint" />
          </mxGeometry>
        </mxCell>
        <mxCell id="PF4K7zb1NUCe5OKD4z1z-82" value="&amp;nbsp;Su Tu" style="shape=parallelogram;perimeter=parallelogramPerimeter;whiteSpace=wrap;html=1;fixedSize=1;" parent="WIyWlLk6GJQsqaUBKTNV-1" vertex="1">
          <mxGeometry x="840" y="930" width="330" height="55" as="geometry" />
        </mxCell>
        <mxCell id="PF4K7zb1NUCe5OKD4z1z-116" style="edgeStyle=orthogonalEdgeStyle;rounded=0;orthogonalLoop=1;jettySize=auto;html=1;" parent="WIyWlLk6GJQsqaUBKTNV-1" source="PF4K7zb1NUCe5OKD4z1z-85" edge="1">
          <mxGeometry relative="1" as="geometry">
            <mxPoint x="1380" y="1090" as="targetPoint" />
          </mxGeometry>
        </mxCell>
        <mxCell id="PF4K7zb1NUCe5OKD4z1z-85" value="&amp;nbsp;Xu Nu" style="shape=parallelogram;perimeter=parallelogramPerimeter;whiteSpace=wrap;html=1;fixedSize=1;" parent="WIyWlLk6GJQsqaUBKTNV-1" vertex="1">
          <mxGeometry x="820" y="1060" width="330" height="60" as="geometry" />
        </mxCell>
        <mxCell id="PF4K7zb1NUCe5OKD4z1z-117" style="edgeStyle=orthogonalEdgeStyle;rounded=0;orthogonalLoop=1;jettySize=auto;html=1;" parent="WIyWlLk6GJQsqaUBKTNV-1" source="PF4K7zb1NUCe5OKD4z1z-88" edge="1">
          <mxGeometry relative="1" as="geometry">
            <mxPoint x="1380" y="1279.9999999999998" as="targetPoint" />
          </mxGeometry>
        </mxCell>
        <mxCell id="PF4K7zb1NUCe5OKD4z1z-88" value="&amp;nbsp;Thien Binh" style="shape=parallelogram;perimeter=parallelogramPerimeter;whiteSpace=wrap;html=1;fixedSize=1;" parent="WIyWlLk6GJQsqaUBKTNV-1" vertex="1">
          <mxGeometry x="820" y="1240" width="330" height="60" as="geometry" />
        </mxCell>
        <mxCell id="PF4K7zb1NUCe5OKD4z1z-118" style="edgeStyle=orthogonalEdgeStyle;rounded=0;orthogonalLoop=1;jettySize=auto;html=1;" parent="WIyWlLk6GJQsqaUBKTNV-1" source="PF4K7zb1NUCe5OKD4z1z-92" edge="1">
          <mxGeometry relative="1" as="geometry">
            <mxPoint x="1380" y="1420" as="targetPoint" />
          </mxGeometry>
        </mxCell>
        <mxCell id="PF4K7zb1NUCe5OKD4z1z-92" value="Bo Cap" style="shape=parallelogram;perimeter=parallelogramPerimeter;whiteSpace=wrap;html=1;fixedSize=1;" parent="WIyWlLk6GJQsqaUBKTNV-1" vertex="1">
          <mxGeometry x="800" y="1385" width="330" height="60" as="geometry" />
        </mxCell>
        <mxCell id="PF4K7zb1NUCe5OKD4z1z-121" style="edgeStyle=orthogonalEdgeStyle;rounded=0;orthogonalLoop=1;jettySize=auto;html=1;" parent="WIyWlLk6GJQsqaUBKTNV-1" source="PF4K7zb1NUCe5OKD4z1z-95" edge="1">
          <mxGeometry relative="1" as="geometry">
            <mxPoint x="1380" y="1910" as="targetPoint" />
          </mxGeometry>
        </mxCell>
        <mxCell id="PF4K7zb1NUCe5OKD4z1z-95" value="Bao Binh" style="shape=parallelogram;perimeter=parallelogramPerimeter;whiteSpace=wrap;html=1;fixedSize=1;" parent="WIyWlLk6GJQsqaUBKTNV-1" vertex="1">
          <mxGeometry x="700" y="1880" width="330" height="60" as="geometry" />
        </mxCell>
        <mxCell id="PF4K7zb1NUCe5OKD4z1z-120" style="edgeStyle=orthogonalEdgeStyle;rounded=0;orthogonalLoop=1;jettySize=auto;html=1;" parent="WIyWlLk6GJQsqaUBKTNV-1" source="PF4K7zb1NUCe5OKD4z1z-96" edge="1">
          <mxGeometry relative="1" as="geometry">
            <mxPoint x="1380" y="1745" as="targetPoint" />
          </mxGeometry>
        </mxCell>
        <mxCell id="PF4K7zb1NUCe5OKD4z1z-96" value="Ma Ket" style="shape=parallelogram;perimeter=parallelogramPerimeter;whiteSpace=wrap;html=1;fixedSize=1;" parent="WIyWlLk6GJQsqaUBKTNV-1" vertex="1">
          <mxGeometry x="740" y="1715" width="330" height="60" as="geometry" />
        </mxCell>
        <mxCell id="PF4K7zb1NUCe5OKD4z1z-119" style="edgeStyle=orthogonalEdgeStyle;rounded=0;orthogonalLoop=1;jettySize=auto;html=1;" parent="WIyWlLk6GJQsqaUBKTNV-1" source="PF4K7zb1NUCe5OKD4z1z-97" edge="1">
          <mxGeometry relative="1" as="geometry">
            <mxPoint x="1380" y="1550" as="targetPoint" />
          </mxGeometry>
        </mxCell>
        <mxCell id="PF4K7zb1NUCe5OKD4z1z-97" value="&amp;nbsp;Nhan Ma" style="shape=parallelogram;perimeter=parallelogramPerimeter;whiteSpace=wrap;html=1;fixedSize=1;" parent="WIyWlLk6GJQsqaUBKTNV-1" vertex="1">
          <mxGeometry x="760" y="1520" width="330" height="60" as="geometry" />
        </mxCell>
        <mxCell id="PF4K7zb1NUCe5OKD4z1z-122" style="edgeStyle=orthogonalEdgeStyle;rounded=0;orthogonalLoop=1;jettySize=auto;html=1;" parent="WIyWlLk6GJQsqaUBKTNV-1" source="PF4K7zb1NUCe5OKD4z1z-98" edge="1">
          <mxGeometry relative="1" as="geometry">
            <mxPoint x="1380" y="2080" as="targetPoint" />
          </mxGeometry>
        </mxCell>
        <mxCell id="PF4K7zb1NUCe5OKD4z1z-98" value="&amp;nbsp;Song Ngu" style="shape=parallelogram;perimeter=parallelogramPerimeter;whiteSpace=wrap;html=1;fixedSize=1;" parent="WIyWlLk6GJQsqaUBKTNV-1" vertex="1">
          <mxGeometry x="690" y="2055" width="330" height="60" as="geometry" />
        </mxCell>
        <mxCell id="PF4K7zb1NUCe5OKD4z1z-108" value="End" style="ellipse;whiteSpace=wrap;html=1;" parent="WIyWlLk6GJQsqaUBKTNV-1" vertex="1">
          <mxGeometry x="700" y="2258" width="120" height="80" as="geometry" />
        </mxCell>
      </root>
    </mxGraphModel>
  </diagram>
</mxfile>
